<svg width="1840" height="300" xmlns="http://www.w3.org/2000/svg">
 <g>
  <title>Layer 1</title>
  <g id="svg_1">
   <path d="m479.66737,68.73866c7.4,2.1 13.5,4.7 18.3,7.8c4.8,3.1 9,6.1 12.6,9.2c3.7,3.1 6.3,5.6 7.9,7.7l2.5,3.3l-21.3,21.3c-0.4,-0.6 -1,-1.4 -1.8,-2.5c-0.8,-1.1 -2.5,-2.9 -5.1,-5.4c-2.7,-2.5 -5.5,-4.8 -8.7,-6.7c-3.1,-1.9 -7.2,-3.7 -12.3,-5.3s-10.3,-2.5 -15.6,-2.5c-14.6,0 -26.8,4.9 -36.6,14.7c-9.8,9.8 -14.7,22 -14.7,36.6s4.9,26.8 14.7,36.6c9.8,9.8 22,14.7 36.6,14.7c5.7,0 11.1,-0.8 16.3,-2.3c5.2,-1.6 9.5,-3.4 12.9,-5.6c3.4,-2.1 6.4,-4.3 9,-6.5c2.6,-2.2 4.5,-4.1 5.7,-5.7l1.7,-2.3l20.2,21.3c-0.6,0.9 -1.5,2 -2.7,3.4c-1.2,1.4 -3.9,3.9 -8,7.5c-4.1,3.6 -8.5,6.8 -13.2,9.5c-4.7,2.7 -10.8,5.2 -18.4,7.5c-7.6,2.3 -15.5,3.4 -23.6,3.4c-23.8,0 -43.9,-8 -60.3,-23.9c-16.4,-16 -24.6,-35.2 -24.6,-57.6s8.2,-41.6 24.6,-57.6c16.4,-15.9 36.5,-23.9 60.3,-23.9c8.4,0.1 16.2,1.1 23.6,3.3z" id="svg_2"/>
   <path d="m607.76737,191.43866l-13,37l-37.5,0l61.9,-163l35.9,0l61.9,163l-37.5,0l-13,-37l-58.7,0zm29.3,-86.6l-19.1,53.2l38,0l-18.9,-53.2z" id="svg_3"/>
   <path d="m753.86737,65.43866l66.3,0c14.8,0 27.1,5.2 36.8,15.5c9.7,10.3 14.6,23 14.6,38c0,6.5 -0.9,12.6 -2.8,18.3s-4.1,10.3 -6.6,13.8c-2.5,3.5 -5.1,6.5 -7.8,9c-2.6,2.5 -4.9,4.2 -6.8,5.1l-2.7,1.6l32.1,61.7l-33,0l-29.5,-55.5l-28.4,0l0,55.6l-32.2,0l0,-163.1zm83.8,36.1c-4.2,-4.3 -9.5,-6.5 -15.8,-6.5l-35.9,0l0,44.5l35.9,0c6.3,0 11.6,-2.1 15.8,-6.3c4.2,-4.2 6.3,-9.3 6.3,-15.4c0,-6.6 -2.1,-12 -6.3,-16.3z" id="svg_4"/>
   <path d="m1061.76737,139.73866l0,58.5c-0.6,0.7 -1.4,1.8 -2.7,3.2c-1.2,1.4 -3.9,3.9 -8.1,7.3c-4.2,3.5 -8.6,6.5 -13.2,9.2c-4.6,2.7 -10.7,5.1 -18.2,7.3c-7.5,2.2 -15.2,3.3 -23.2,3.3c-22.9,0 -42.3,-8 -58,-23.9c-15.8,-16 -23.6,-35.2 -23.6,-57.6s7.9,-41.6 23.6,-57.6c15.8,-15.9 35.1,-23.9 58,-23.9c7.9,0 15.4,1.1 22.5,3.2c7.1,2.1 13,4.7 17.6,7.8c4.6,3.1 8.6,6.1 12.2,9.2c3.5,3.1 6.1,5.6 7.6,7.7l2.4,3.3l-20.4,21.3c-0.4,-0.6 -1,-1.4 -1.7,-2.5s-2.4,-2.9 -4.9,-5.4c-2.5,-2.5 -5.3,-4.8 -8.3,-6.7c-3,-1.9 -7,-3.7 -11.8,-5.3s-9.9,-2.5 -15,-2.5c-14,0 -25.8,4.9 -35.2,14.7c-9.4,9.8 -14.1,22 -14.1,36.6s4.7,26.8 14.1,36.6c9.4,9.8 21.2,14.7 35.2,14.7c6.7,0 12.8,-1 18.3,-3.1c5.5,-2.1 9.4,-4.2 11.6,-6.3l3.2,-2.8l0,-21.3l-28.6,0l0,-25l60.7,0z" id="svg_5"/>
   <path d="m1148.46737,191.43866l-13,37l-37.5,0l61.9,-163l35.9,0l61.9,163l-37.5,0l-13,-37l-58.7,0zm29.3,-86.6l-19.1,53.2l38,0l-18.9,-53.2z" id="svg_6"/>
   <path d="m1431.96737,65.43866l29.8,0l0,163l-35.8,0l0,-108l-50.1,66.3l-50,-65.8l0,107.5l-32.2,0l0,-163l30.3,0l53.7,71l54.3,-71z" id="svg_7"/>
   <path d="m1521.96737,89.33866c16.4,-15.9 36.5,-23.9 60.3,-23.9c23.8,0 43.9,8 60.3,23.9c16.4,15.9 24.6,35.1 24.6,57.6s-8.2,41.7 -24.6,57.6c-16.4,15.9 -36.5,23.9 -60.3,23.9c-23.8,0 -43.9,-8 -60.3,-23.9c-16.4,-16 -24.6,-35.2 -24.6,-57.6s8.3,-41.6 24.6,-57.6zm24.7,94.1c9.7,9.9 21.6,14.8 35.6,14.8c14,0 25.8,-4.9 35.6,-14.8c9.7,-9.9 14.6,-22 14.6,-36.5c0,-14.4 -4.9,-26.6 -14.6,-36.5s-21.6,-14.9 -35.6,-14.9c-14,0 -25.9,5 -35.6,14.9c-9.7,9.9 -14.6,22.1 -14.6,36.5c0,14.5 4.9,26.6 14.6,36.5z" id="svg_8"/>
   <path d="m1775.56737,166.63866c-5.3,-3.2 -11.7,-5.9 -19.3,-8c-7.6,-2.1 -15.1,-4.7 -22.7,-7.6c-7.5,-2.9 -13.9,-7.7 -19.2,-14.4c-5.3,-6.7 -8,-15.1 -8,-25.4c0,-12.6 5.1,-23.4 15.2,-32.4c10.1,-8.9 23.3,-13.4 39.5,-13.4c6.4,0 12.6,0.7 18.5,2.2c6,1.5 10.8,3.2 14.7,5.2c3.8,2 7.2,4 10,6.1c2.9,2.1 4.9,3.9 6.2,5.4l2,2.2l-20.1,21.3c-0.9,-1 -2.1,-2.3 -3.6,-3.8c-1.6,-1.5 -4.9,-3.5 -9.9,-5.9c-5,-2.5 -10.2,-3.7 -15.5,-3.7c-6.4,0 -11.5,1.6 -15.4,4.9c-3.9,3.3 -5.8,7.2 -5.8,11.9c0,5.2 2.6,9.4 7.9,12.6c5.3,3.2 11.7,5.8 19.2,8c7.5,2.2 15.1,4.7 22.7,7.6c7.6,2.9 14,7.7 19.3,14.4c5.3,6.7 8,15.1 8,25.4c0,14.5 -5.3,26.3 -15.8,35.4c-10.5,9.2 -25,13.7 -43.4,13.7c-7.3,0 -14.3,-0.9 -21.1,-2.7c-6.8,-1.8 -12.4,-3.9 -16.8,-6.4c-4.4,-2.5 -8.3,-5 -11.6,-7.5c-3.3,-2.5 -5.7,-4.7 -7.2,-6.4l-2.5,-2.7l20.2,-20.1c1,1.2 2.5,2.7 4.3,4.5c1.9,1.8 6,4.3 12.4,7.5c6.4,3.1 13.1,4.7 20.1,4.7c8.1,0 14.4,-1.9 18.9,-5.7c4.5,-3.8 6.8,-8.6 6.8,-14.4c-0.1,-5.1 -2.8,-9.3 -8,-12.5z" id="svg_9"/>
   <g id="svg_10">
    <polygon points="264.067405462265,88.43866729736328 202.66736578941345,27.038644790649414 152.16738104820251,27.038644790649414 264.067405462265,139.0386505126953 " id="svg_11"/>
    <polygon points="51.06736731529236,27.038644790649414 264.067405462265,240.13868713378906 264.067405462265,189.5386505126953 101.56738257408142,27.038644790649414 " id="svg_12"/>
    <polygon points="25.767371892929077,204.0386505126953 87.06736731529236,265.43865966796875 137.66736578941345,265.43865966796875 25.767371892929077,153.4386749267578 " id="svg_13"/>
    <polygon points="25.767371892929077,102.93866729736328 188.26737189292908,265.43865966796875 238.76735663414001,265.43865966796875 25.767371892929077,52.338661193847656 " id="svg_14"/>
   </g>
  </g>
 </g>

</svg>