<?xml version="1.0" encoding="utf-8"?>
<!-- Generator: Adobe Illustrator 25.3.1, SVG Export Plug-In . SVG Version: 6.00 Build 0)  -->
<svg version="1.1" id="Capa_1" xmlns="http://www.w3.org/2000/svg" xmlns:xlink="http://www.w3.org/1999/xlink" x="0px" y="0px"
	 viewBox="0 0 1000 1000" style="enable-background:new 0 0 1000 1000;" xml:space="preserve">
<style type="text/css">
	.st0{fill:#DFE5ED;}
	.st1{fill:#3E4E6D;}
	.st2{fill:#A2AAB9;}
	.st3{fill:#707D97;}
	.st4{fill:#FFFFFF;}
</style>
<g>
	<path class="st0" d="M500,20C234.9,20,20,234.9,20,500c0,73.5,16.5,143.1,46,205.3c25.3-23.2,59-37.3,96-37.3
		c36.2,0,69.2,13.5,94.3,35.8c12.3-5.5,25.9-8.6,40.4-8.6h118.5c0-0.5,0-1.1,0-1.6v-55.4c-67.4-31.1-115.2-97.8-118.9-175.7h-29.8
		c-11,0-20-9-20-20v-93.6c0-11,9-20,20-20h30.8c7-64,43.9-119.3,96.4-151.6v-27.4c0-16.1,13.1-29.1,29.1-29.1H463
		c5.3-6.8,13.6-11.2,23-11.2h28.9c9.3,0,17.6,4.4,23,11.2h39.4c16.1,0,29.1,13.1,29.1,29.1v27.4c52.4,32.3,89.3,87.5,96.4,151.4
		h44.4c11,0,20,9,20,20v93.6c0,11-9,20-20,20h-43.4c-3.7,77.9-51.5,144.7-118.9,175.8v55.4c0,0.5,0,1.1,0,1.6h118.5
		c14.5,0,28.2,3.1,40.4,8.6c25.1-22.3,58.1-35.8,94.3-35.8c37,0,70.7,14.2,96,37.3c29.5-62.3,46-131.9,46-205.3
		C980,234.9,765.1,20,500,20z"/>
	<path class="st1" d="M256.3,703.8C231.2,681.5,198.2,668,162,668c-37,0-70.7,14.2-96,37.3c34.5,72.7,86.7,135.4,151,182.4
		l-16.5-71.8C189.6,768.3,215,722.4,256.3,703.8z"/>
	<path class="st1" d="M743.7,703.8c41.3,18.5,66.7,64.5,55.7,112.1L783,887.8c64.4-47,116.6-109.7,151-182.4
		c-25.3-23.2-59-37.3-96-37.3C801.8,668,768.8,681.5,743.7,703.8z"/>
	<path class="st2" d="M743.7,703.8c-12.3-5.5-25.9-8.6-40.4-8.6H584.8c-0.9,45.9-38.7,83.2-84.8,83.2c-6.1,0-12.1-0.7-17.9-1.9
		c-11.1-2.4-21.3-7-30.4-13.2c-21.7-15.1-36-39.9-36.6-68H296.7c-14.5,0-28.2,3.1-40.4,8.6c-41.3,18.5-66.7,64.5-55.7,112.1
		l16.5,71.8c13.2,9.6,26.8,18.6,41,26.8c16.4,9.6,33.4,18.2,51,25.9l-11.6-87.7l-3.8-28.8c0-5.1,4.6-9.2,10.3-9.6c0.2,0,0.5,0,0.7,0
		h21.3l165.5,165.5l0.1,0.1h8.5c15.9,0,31.7-0.8,47.2-2.3L383.9,814.4h78.2l152,152c15.2-3.7,30.1-8.1,44.7-13.2L520,814.4h175.3
		c0.2,0,0.5,0,0.7,0c5.7,0.3,10.3,4.5,10.3,9.6l-3.8,28.8L691,940.5c17.6-7.6,34.6-16.3,51-25.9c14.1-8.3,27.8-17.2,41-26.8
		l16.5-71.8C810.4,768.3,785,722.4,743.7,703.8z"/>
	<path class="st3" d="M383.9,814.4l163.3,163.3c22.8-2.2,45.1-6,66.9-11.3l-152-152H383.9z"/>
	<path class="st3" d="M304.6,814.4c-0.2,0-0.5,0-0.7,0c-5.7,0.3-10.3,4.5-10.3,9.6l3.8,28.8l11.6,87.7
		c56.1,24.3,117.7,38.3,182.4,39.4L325.9,814.4H304.6z"/>
	<path class="st3" d="M706.4,824c0-5.1-4.6-9.2-10.3-9.6c-0.2,0-0.5,0-0.7,0H520l138.7,138.7c10.9-3.8,21.7-8,32.2-12.6l11.6-87.7
		L706.4,824z"/>
	<path class="st3" d="M296,351.2c0-7.5,0.4-14.9,1.2-22.3h-30.8c-11,0-20,9-20,20v93.6c0,11,9,20,20,20h29.8
		c-0.2-3.2-0.2-6.5-0.2-9.7V351.2z"/>
	<path class="st3" d="M704,452.8c0,3.2-0.1,6.4-0.2,9.6h43.4c11,0,20-9,20-20v-93.6c0-11-9-20-20-20h-44.4
		c0.8,7.4,1.2,14.8,1.2,22.4V452.8z"/>
	<path class="st3" d="M451.8,763.2c9,6.3,19.3,10.8,30.4,13.2c5.8,1.3,11.8,1.9,17.9,1.9c46.1,0,83.9-37.3,84.8-83.2
		c0-0.5,0-1.1,0-1.6v-55.4c-25.9,11.9-54.6,18.6-84.8,18.6h0c-30.2,0-59-6.7-84.8-18.6v55.4c0,0.5,0,1.1,0,1.6
		C415.7,723.3,430.1,748.2,451.8,763.2z"/>
	<path class="st2" d="M500,656.8c30.2,0,59-6.7,84.8-18.6c67.4-31.1,115.3-97.9,118.9-175.8c0.1-3.2,0.2-6.4,0.2-9.6V351.2
		c0-7.6-0.4-15-1.2-22.4c-7.1-63.9-44-119.2-96.4-151.4v151.8h6.6c1.1,0,2.3,0,3.4,0.1s2.3,0.1,3.4,0.3c2.2,0.2,4.4,0.6,6.6,1
		c2.2,0.4,4.3,1,6.4,1.6c4.3,1.4,8.5,3.1,12.4,5.3c1.7,1,3.4,2,5.1,3.1c1.8,1.2,3.5,2.5,5.1,3.8c6.6,5.4,12.1,12.1,16.2,19.7
		c0.4,0.7,0.8,1.4,1.1,2.1c0.7,1.4,1.4,2.9,2,4.4c0.3,0.8,0.6,1.5,0.9,2.3c0.4,1,0.7,2,1.1,3.1c0.7,2.1,1.2,4.2,1.6,6.4
		c0.2,1.1,0.4,2.2,0.6,3.3c0.5,3.3,0.8,6.7,0.8,10.1v0v0v0c0,2.9-0.2,5.7-0.5,8.5c-0.1,0.7-0.2,1.4-0.3,2.1
		c-0.3,2.1-0.8,4.1-1.3,6.1c-0.3,1.1-0.6,2.1-0.9,3.2c-0.7,2.1-1.4,4.1-2.2,6.1c-1.7,4-3.8,7.8-6.2,11.3c-1.2,1.8-2.5,3.5-3.8,5.1
		c-2.7,3.3-5.7,6.3-9,9c-1.6,1.4-3.4,2.6-5.1,3.8c-1.6,1.1-3.2,2-4.9,3c-1.2,0.6-2.3,1.3-3.5,1.8c-1.9,0.9-3.9,1.8-6,2.5
		c-1,0.4-2,0.7-3.1,1.1c-2.1,0.7-4.2,1.2-6.4,1.6c-2.2,0.4-4.4,0.8-6.6,1c-1.1,0.1-2.2,0.2-3.4,0.3c-1.1,0.1-2.3,0.1-3.4,0.1h-72.4
		h-81.1H387h0c-5,0-9.9-0.6-14.6-1.6c-2.8-0.6-5.6-1.4-8.2-2.4c-1-0.4-2-0.8-3-1.2c-3-1.3-5.9-2.8-8.6-4.4c-0.9-0.6-1.8-1.1-2.7-1.7
		c-1.8-1.2-3.5-2.5-5.1-3.8c-3.3-2.7-6.3-5.7-9-9c-2-2.5-3.9-5.1-5.6-7.8c-1.1-1.8-2.1-3.7-3.1-5.7c-1.4-2.9-2.6-5.9-3.6-9.1
		c-0.3-1-0.6-2.1-0.9-3.2c-0.5-2-0.9-4-1.3-6.1c-0.1-0.7-0.2-1.4-0.3-2.1c-0.4-2.8-0.5-5.6-0.5-8.5v0v0v0c0-3.4,0.3-6.8,0.8-10.1
		c0.2-1.1,0.4-2.2,0.6-3.3c0.4-2.2,1-4.3,1.6-6.4c0.3-1,0.7-2.1,1.1-3.1c0.3-0.8,0.6-1.5,0.9-2.3c0.6-1.5,1.3-3,2-4.4
		c0.4-0.7,0.7-1.4,1.1-2.1c0.5-0.9,1.1-1.9,1.6-2.8c1.1-1.8,2.3-3.6,3.6-5.3c3.2-4.3,6.9-8.2,11-11.6c1.6-1.4,3.4-2.6,5.1-3.8
		c0.9-0.6,1.8-1.2,2.7-1.7c3.7-2.3,7.6-4.2,11.8-5.7c4.4-1.6,9.1-2.8,13.9-3.4c2.9-0.4,5.8-0.6,8.8-0.6h0h6.6V177.4
		c-52.4,32.3-89.3,87.6-96.4,151.6c-0.8,7.3-1.2,14.7-1.2,22.3v101.6c0,3.3,0.1,6.5,0.2,9.7c3.7,77.8,51.6,144.6,118.9,175.7
		C441,650.1,469.8,656.8,500,656.8L500,656.8z M425.9,520.2c-2.8-10.2,4.9-20.2,15.5-20.2h117.3c10.5,0,18.2,10,15.5,20.2
		c-8.9,32.6-38.7,56.6-74.1,56.6S434.7,552.8,425.9,520.2z"/>
	<path class="st4" d="M574.1,520.2c2.8-10.2-4.9-20.2-15.5-20.2H441.3c-10.5,0-18.2,10-15.5,20.2c8.9,32.6,38.7,56.6,74.1,56.6
		S565.3,552.8,574.1,520.2z"/>
	<path class="st3" d="M544,152v177.2h62.4V177.4v-27.4c0-16.1-13.1-29.1-29.1-29.1h-39.4c3.9,4.9,6.2,11.2,6.2,17.9V152z"/>
	<path class="st3" d="M456.8,329.2V151.9v-13.1c0-6.8,2.3-13,6.2-17.9h-40.2c-16.1,0-29.1,13.1-29.1,29.1v27.4v151.8H456.8z"/>
	<path class="st2" d="M456.8,151.9v177.3H544V152v-13.3c0-6.8-2.3-13-6.2-17.9c-5.3-6.8-13.6-11.2-23-11.2h-28.9
		c-9.3,0-17.6,4.4-23,11.2c-3.9,4.9-6.2,11.2-6.2,17.9V151.9z"/>
	<path class="st4" d="M372,364.7c-3.4,1.7-6.6,3.9-9.4,6.7c-6.6,6.6-10.2,15.2-10.2,24.4c0,9.2,3.6,17.8,10.2,24.4
		c2.8,2.8,6,5.1,9.4,6.7c4.6,2.3,9.7,3.5,15,3.5h226c9.2,0,17.8-3.6,24.4-10.2c1.6-1.6,3-3.3,4.2-5.1c3.9-5.7,6-12.4,6-19.4
		c0-7-2.1-13.7-6-19.4c-1.2-1.8-2.6-3.5-4.2-5.1c-6.6-6.6-15.2-10.2-24.4-10.2H387C381.7,361.2,376.6,362.4,372,364.7z"/>
	<path class="st1" d="M456.8,329.2h-63.2H387h0c-3,0-5.9,0.2-8.8,0.6c-4.8,0.6-9.5,1.8-13.9,3.4c-4.1,1.5-8.1,3.4-11.8,5.7
		c-0.9,0.6-1.8,1.1-2.7,1.7c-1.8,1.2-3.5,2.5-5.1,3.8c-4.1,3.4-7.8,7.3-11,11.6c-1.3,1.7-2.5,3.5-3.6,5.3c-0.6,0.9-1.1,1.8-1.6,2.8
		c-0.4,0.7-0.8,1.4-1.1,2.1c-0.7,1.4-1.4,2.9-2,4.4c-0.3,0.8-0.6,1.5-0.9,2.3c-0.4,1-0.7,2-1.1,3.1c-0.7,2.1-1.2,4.2-1.6,6.4
		c-0.2,1.1-0.4,2.2-0.6,3.3c-0.5,3.3-0.8,6.7-0.8,10.1v0v0v0c0,2.9,0.2,5.7,0.5,8.5c0.1,0.7,0.2,1.4,0.3,2.1
		c0.3,2.1,0.8,4.1,1.3,6.1c0.3,1.1,0.6,2.1,0.9,3.2c1,3.1,2.2,6.1,3.6,9.1c0.9,1.9,2,3.8,3.1,5.7c1.7,2.7,3.5,5.4,5.6,7.8
		c2.7,3.3,5.7,6.3,9,9c1.6,1.4,3.4,2.6,5.1,3.8c0.9,0.6,1.8,1.2,2.7,1.7c2.8,1.7,5.6,3.2,8.6,4.4c1,0.4,2,0.8,3,1.2
		c2.7,1,5.4,1.8,8.2,2.4c4.7,1.1,9.6,1.6,14.6,1.6h0h72.4h81.1H613c1.1,0,2.3,0,3.4-0.1c1.1-0.1,2.3-0.1,3.4-0.3
		c2.2-0.2,4.4-0.6,6.6-1c2.2-0.4,4.3-1,6.4-1.6c1-0.3,2.1-0.7,3.1-1.1c2-0.7,4-1.6,6-2.5c1.2-0.6,2.4-1.2,3.5-1.8
		c1.7-0.9,3.3-1.9,4.9-3c1.8-1.2,3.5-2.5,5.1-3.8c3.3-2.7,6.3-5.7,9-9c1.4-1.6,2.6-3.4,3.8-5.1c2.4-3.5,4.5-7.3,6.2-11.3
		c0.8-2,1.6-4,2.2-6.1c0.3-1,0.6-2.1,0.9-3.2c0.5-2,0.9-4,1.3-6.1c0.1-0.7,0.2-1.4,0.3-2.1c0.4-2.8,0.5-5.6,0.5-8.5v0v0v0
		c0-3.4-0.3-6.8-0.8-10.1c-0.2-1.1-0.4-2.2-0.6-3.3c-0.4-2.2-1-4.3-1.6-6.4c-0.3-1-0.7-2.1-1.1-3.1c-0.3-0.8-0.6-1.5-0.9-2.3
		c-0.6-1.5-1.3-3-2-4.4c-0.4-0.7-0.7-1.4-1.1-2.1c-4.1-7.5-9.6-14.2-16.2-19.7c-1.6-1.4-3.4-2.6-5.1-3.8c-1.6-1.1-3.3-2.1-5.1-3.1
		c-3.9-2.2-8-4-12.4-5.3c-2.1-0.7-4.2-1.2-6.4-1.6c-2.2-0.4-4.4-0.8-6.6-1c-1.1-0.1-2.2-0.2-3.4-0.3s-2.3-0.1-3.4-0.1h-6.6H544
		H456.8z M613,361.2c9.2,0,17.8,3.6,24.4,10.2c1.6,1.6,3,3.3,4.2,5.1c3.9,5.7,6,12.4,6,19.4c0,7-2.1,13.7-6,19.4
		c-1.2,1.8-2.6,3.5-4.2,5.1c-6.6,6.6-15.2,10.2-24.4,10.2H387c-5.3,0-10.4-1.2-15-3.5c-3.4-1.7-6.6-3.9-9.4-6.7
		c-6.6-6.6-10.2-15.2-10.2-24.4c0-9.2,3.6-17.8,10.2-24.4c2.8-2.8,6-5.1,9.4-6.7c4.6-2.3,9.7-3.5,15-3.5H613z"/>
</g>
</svg>
