<?xml version="1.0" encoding="utf-8"?>
<!-- Generator: Adobe Illustrator 25.3.1, SVG Export Plug-In . SVG Version: 6.00 Build 0)  -->
<svg version="1.1" id="Capa_1" xmlns="http://www.w3.org/2000/svg" xmlns:xlink="http://www.w3.org/1999/xlink" x="0px" y="0px"
	 viewBox="0 0 1000 1000" style="enable-background:new 0 0 1000 1000;" xml:space="preserve">
<style type="text/css">
	.st0{fill:#DFE5ED;}
	.st1{fill:#707D97;}
	.st2{fill:#B3BCC9;}
	.st3{fill:#A2AAB9;}
	.st4{fill:#3E4E6D;}
</style>
<g>
	<path class="st0" d="M500,20C234.9,20,20,234.9,20,500c0,147.8,66.8,280.1,172,368.1V707.2V549.6c0-140.1,82.1-259.8,197.8-307.1
		c31.3-12.8,65-20.3,100.3-21.5v-37.1c-11.9-4.1-20.5-15.4-20.5-28.7c0-16.8,13.6-30.4,30.4-30.4c16.8,0,30.4,13.6,30.4,30.4
		c0,13.3-8.6,24.6-20.5,28.7v37c7.2,0.2,14.3,0.8,21.3,1.5c14,1.5,27.7,4,41,7.4c13,3.3,25.7,7.5,37.9,12.6
		c4.3,1.7,8.5,3.6,12.7,5.5c8.7,4,17.2,8.5,25.4,13.3c95.2,55.9,159.7,164,159.7,288.2v157.6v160.9C913.2,780.1,980,647.8,980,500
		C980,234.9,765.1,20,500,20z"/>
	<path class="st1" d="M509.9,221v-37c-3.1,1.1-6.5,1.7-9.9,1.7s-6.8-0.6-9.9-1.7V221c3.3-0.1,6.6-0.2,9.9-0.2
		C503.3,220.8,506.6,220.9,509.9,221z"/>
	<path class="st1" d="M808,707.2V549.6c0-124.2-64.5-232.3-159.7-288.2c-8.3-4.8-16.7-9.3-25.4-13.3c-4.2-1.9-8.4-3.8-12.7-5.5v10.3
		l-220.4,83.5v-37.3l182.5-69.2c-13.4-3.4-27.1-5.9-41-7.4l-21.3,8.1l-18.6,7l-101.6,38.5v-33.6C274.1,289.8,192,409.5,192,549.6
		v157.6h0c75.1,0,136,60.9,136,136v105c53.4,20.5,111.4,31.8,172,31.8s118.6-11.2,172-31.8v-105C672,768.1,732.9,707.2,808,707.2z
		 M455.4,804.8c2.4,5.8,5.9,10.9,10.4,15.4c0.2,0.2,0.5,0.4,0.7,0.7h-31.7c-19.1,0-34.6-15.5-34.6-34.6v-21
		c0-7.8,6.3-14.1,14.1-14.1h52.1c-0.2,0.2-0.5,0.4-0.7,0.7c-4.4,4.4-7.9,9.6-10.4,15.4c-2.5,6-3.8,12.3-3.8,18.8
		S452.9,798.8,455.4,804.8z M500,817.8c-17.6,0-31.9-14.3-31.9-31.9c0-0.6,0-1.1,0-1.6c0-0.8,0.1-1.6,0.2-2.4
		c0.1-0.5,0.1-1.1,0.2-1.6c0.1-0.5,0.2-1,0.3-1.6c0.1-0.5,0.3-1,0.4-1.5c0.3-1,0.6-2,1-3c0.5-1.2,1-2.4,1.6-3.5c1.4-2.5,3-4.8,5-6.8
		c0.7-0.7,1.4-1.4,2.2-2.1c0.6-0.5,1.2-1,1.8-1.4c0.4-0.3,0.8-0.6,1.3-0.9c1.5-1,3.1-1.9,4.7-2.6c0.5-0.2,0.9-0.4,1.4-0.6
		c3.6-1.4,7.6-2.2,11.7-2.2s8.1,0.8,11.7,2.2c0.5,0.2,1,0.4,1.4,0.6c1.6,0.7,3.2,1.6,4.7,2.6c0.4,0.3,0.8,0.6,1.3,0.9
		c0.6,0.5,1.2,0.9,1.8,1.4c0.8,0.7,1.5,1.4,2.2,2.1c1.9,2,3.6,4.3,5,6.8c0.6,1.1,1.2,2.3,1.6,3.5c0.4,1,0.7,2,1,3
		c0.1,0.5,0.3,1,0.4,1.5c0.1,0.5,0.2,1,0.3,1.6c0.1,0.5,0.2,1.1,0.2,1.6c0.1,0.8,0.2,1.6,0.2,2.4c0,0.5,0,1.1,0,1.6
		C531.9,803.6,517.6,817.8,500,817.8z M599.7,786.2c0,19.1-15.5,34.6-34.6,34.6h-31.7c0.2-0.2,0.5-0.4,0.7-0.7
		c4.4-4.4,7.9-9.6,10.4-15.4c2.5-6,3.8-12.3,3.8-18.8s-1.3-12.9-3.8-18.8c-2.4-5.8-5.9-10.9-10.4-15.4c-0.2-0.2-0.5-0.4-0.7-0.7
		h52.1c7.8,0,14.1,6.3,14.1,14.1V786.2z M621.9,681.5H378.1c-56.2,0-101.9-45.7-101.9-101.9V467.5c0-56.2,45.7-101.9,101.9-101.9
		h11.7v-6.2l220.4-83.5v37.3l-138.5,52.5h60.6l77.9-29.5v29.5h11.7c56.2,0,101.9,45.7,101.9,101.9v112.1
		C723.8,635.8,678.1,681.5,621.9,681.5z"/>
	<path class="st2" d="M389.8,336.4l220.4-83.5v-10.3c-12.3-5-25-9.2-37.9-12.6l-182.5,69.2V336.4z"/>
	<path class="st2" d="M491.4,237.6l18.6-7l21.3-8.1c-7-0.8-14.1-1.3-21.3-1.5c-3.3-0.1-6.6-0.2-9.9-0.2c-3.3,0-6.6,0.1-9.9,0.2
		c-35.2,1.2-69,8.7-100.3,21.5v33.6L491.4,237.6z"/>
	<polygon class="st2" points="610.2,336.1 532.3,365.6 610.2,365.6 	"/>
	<polygon class="st2" points="610.2,313.1 610.2,275.8 389.8,359.3 389.8,365.6 471.7,365.6 	"/>
	<path class="st3" d="M585.6,751.1h-52.1c0.2,0.2,0.5,0.4,0.7,0.7c4.4,4.4,7.9,9.6,10.4,15.4c2.5,6,3.8,12.3,3.8,18.8
		s-1.3,12.9-3.8,18.8c-2.4,5.8-5.9,10.9-10.4,15.4c-0.2,0.2-0.5,0.4-0.7,0.7h31.7c19.1,0,34.6-15.5,34.6-34.6v-21
		C599.7,757.4,593.4,751.1,585.6,751.1z"/>
	<path class="st3" d="M465.8,751.7c0.2-0.2,0.5-0.4,0.7-0.7h-52.1c-7.8,0-14.1,6.3-14.1,14.1v21c0,19.1,15.5,34.6,34.6,34.6h31.7
		c-0.2-0.2-0.5-0.4-0.7-0.7c-4.4-4.4-7.9-9.6-10.4-15.4c-2.5-6-3.8-12.3-3.8-18.8s1.3-12.9,3.8-18.8
		C457.9,761.3,461.4,756.2,465.8,751.7z"/>
	<path class="st4" d="M531.7,781.9c-0.1-0.5-0.1-1.1-0.2-1.6c-0.1-0.5-0.2-1-0.3-1.6c-0.1-0.5-0.2-1-0.4-1.5c-0.3-1-0.6-2-1-3
		c-0.5-1.2-1-2.4-1.6-3.5c-1.4-2.5-3-4.8-5-6.8c-0.7-0.7-1.4-1.4-2.2-2.1c-0.6-0.5-1.2-1-1.8-1.4c-0.4-0.3-0.8-0.6-1.3-0.9
		c-1.5-1-3.1-1.9-4.7-2.6c-0.5-0.2-0.9-0.4-1.4-0.6c-3.6-1.4-7.6-2.2-11.7-2.2s-8.1,0.8-11.7,2.2c-0.5,0.2-1,0.4-1.4,0.6
		c-1.6,0.7-3.2,1.6-4.7,2.6c-0.4,0.3-0.8,0.6-1.3,0.9c-0.6,0.5-1.2,0.9-1.8,1.4c-0.8,0.7-1.5,1.4-2.2,2.1c-1.9,2-3.6,4.3-5,6.8
		c-0.6,1.1-1.2,2.3-1.6,3.5c-0.4,1-0.7,2-1,3c-0.1,0.5-0.3,1-0.4,1.5c-0.1,0.5-0.2,1-0.3,1.6c-0.1,0.5-0.2,1.1-0.2,1.6
		c-0.1,0.8-0.2,1.6-0.2,2.4c0,0.5,0,1.1,0,1.6c0,17.6,14.3,31.9,31.9,31.9c17.6,0,31.9-14.3,31.9-31.9c0-0.6,0-1.1,0-1.6
		C531.8,783.5,531.8,782.7,531.7,781.9z"/>
	<path class="st3" d="M672,843.2v105c49.9-19.2,95.7-46.4,136-80.1V707.2C732.9,707.2,672,768.1,672,843.2z"/>
	<path class="st3" d="M192,707.2L192,707.2l0,160.9c40.3,33.7,86.1,61,136,80.1v-105C328,768.1,267.1,707.2,192,707.2z"/>
	<path class="st4" d="M509.9,183.9c11.9-4.1,20.5-15.4,20.5-28.7c0-16.8-13.6-30.4-30.4-30.4c-16.8,0-30.4,13.6-30.4,30.4
		c0,13.3,8.6,24.6,20.5,28.7c3.1,1.1,6.5,1.7,9.9,1.7S506.8,185,509.9,183.9z"/>
	<path class="st3" d="M703,467.5c0-44.7-36.4-81.1-81.1-81.1h-11.7H477.4h-60.6h-27h-11.7c-44.7,0-81.1,36.4-81.1,81.1v112.1
		c0,44.7,36.4,81.1,81.1,81.1h243.7c44.7,0,81.1-36.4,81.1-81.1V467.5z M386.7,443h3.1h61.5v64.7h-61.5h-3.1V443z M418.8,571.4
		v-32.3h32.3v32.3H418.8z M548.7,604.1h-97.2v-3.3v-29h97.2v29V604.1z M548.9,571.4v-32.3h32.3v32.3H548.9z M613.3,507.7h-3.1h-61.5
		V443h61.5h3.1V507.7z"/>
	<path class="st4" d="M723.8,579.6V467.5c0-56.2-45.7-101.9-101.9-101.9h-11.7h-77.9h-60.6h-81.9h-11.7
		c-56.2,0-101.9,45.7-101.9,101.9v112.1c0,56.2,45.7,101.9,101.9,101.9h243.7C678.1,681.5,723.8,635.8,723.8,579.6z M621.9,660.7
		H378.1c-44.7,0-81.1-36.4-81.1-81.1V467.5c0-44.7,36.4-81.1,81.1-81.1h11.7h27h60.6h132.8h11.7c44.7,0,81.1,36.4,81.1,81.1v112.1
		C703,624.4,666.6,660.7,621.9,660.7z"/>
	<polygon class="st4" points="451.3,507.7 451.3,443 389.8,443 386.7,443 386.7,507.7 389.8,507.7 	"/>
	<rect x="418.8" y="539.1" class="st4" width="32.3" height="32.3"/>
	<rect x="548.9" y="539.1" class="st4" width="32.3" height="32.3"/>
	<polygon class="st4" points="451.5,571.8 451.5,600.8 451.5,604.1 548.7,604.1 548.7,600.8 548.7,571.8 	"/>
	<polygon class="st4" points="548.7,443 548.7,507.7 610.2,507.7 613.3,507.7 613.3,443 610.2,443 	"/>
</g>
</svg>
