<?xml version="1.0" encoding="utf-8"?>
<!-- Generator: Adobe Illustrator 25.3.1, SVG Export Plug-In . SVG Version: 6.00 Build 0)  -->
<svg version="1.1" id="Capa_1" xmlns="http://www.w3.org/2000/svg" xmlns:xlink="http://www.w3.org/1999/xlink" x="0px" y="0px"
	 viewBox="0 0 1000 1000" style="enable-background:new 0 0 1000 1000;" xml:space="preserve">
<style type="text/css">
	.st0{fill:#DFE5ED;}
	.st1{fill:#A2AAB9;}
	.st2{fill:#707D97;}
	.st3{fill:#3E4E6D;}
	.st4{fill:#B3BCC9;}
	.st5{fill:#FFFFFF;}
</style>
<g>
	<path class="st0" d="M500,20C234.9,20,20,234.9,20,500c0,108.8,36.2,209.2,97.2,289.7c15.2-22.6,41.1-37.5,70.4-37.5
		c0.1,0,0.3,0,0.4,0v-2.7c0-13.3,14.7-24.2,32.7-24.2h42.8v-6.9c0-15.2,11.1-27.7,24.8-27.7h84.1v-32.2H396V632h-23.5v-32.4H396V573
		h-23.5v-29.1H226.9c-28.3,0-51.2-22.9-51.2-51.2v-2.2h39.2v-28.2h-39.2v-56.7c0-82.6,67.6-150.2,150.2-150.2h3.2v-51.2
		c0-9.9,8-17.9,17.9-17.9h1.5c9.9,0,17.9,8,17.9,17.9v51.2h16.4v-22.4c0-9.9,8-17.9,17.9-17.9h1.5c9.9,0,17.9,8,17.9,17.9v22.4
		h254.2c82.6,0,150.2,67.6,150.2,150.2v56.7h-39.2v28.2h39.2v2.2c0,28.3-22.9,51.2-51.2,51.2H627.5V573h-23.4v26.5h23.4V632h-23.4
		v26.5h23.4v32.2h84.1c13.6,0,24.8,12.5,24.8,27.7v6.9h42.8c18,0,32.7,10.9,32.7,24.2v2.7c29.4,0.1,55.3,15.2,70.5,38
		C943.6,709.5,980,609,980,500C980,234.9,765.1,20,500,20z"/>
	<path class="st1" d="M811.9,752.2v112.6c26.1-22.3,49.7-47.3,70.5-74.7C867.3,767.3,841.4,752.3,811.9,752.2z"/>
	<path class="st1" d="M187.7,752.2c-29.3,0-55.2,14.9-70.4,37.5c20.9,27.5,44.6,52.7,70.8,75.2V752.2
		C187.9,752.2,187.8,752.2,187.7,752.2z"/>
	<path class="st2" d="M811.9,749.5c0-13.3-14.7-24.2-32.7-24.2h-42.8v72.5v78.6v41.5c7.8-4.4,15.5-9.1,23-13.9
		c18.4-11.9,36-24.9,52.6-39.1V752.2V749.5z"/>
	<path class="st2" d="M263.6,799.1v-73.8h-42.8c-18,0-32.7,10.9-32.7,24.2v2.7v112.6c16.5,14.1,33.9,27.1,52.2,38.9
		c7.6,4.9,15.4,9.6,23.3,14.1v-42.8V799.1z"/>
	<path class="st1" d="M736.4,797.8v-72.5v-6.9c0-15.2-11.1-27.7-24.8-27.7h-84.1v0.2H372.5v-0.2h-84.1c-13.6,0-24.8,12.5-24.8,27.7
		v6.9v73.8v76v42.8c17.6,10,35.9,18.9,54.8,26.6v-5.3c0-27.1,5.9-52.7,16.5-75.8l113.9,113.9c15.9,1.7,32,2.6,48.3,2.7L351.6,834.5
		c9.2-13,20.1-24.8,32.4-35l176.7,176.7c13.2-1.7,26.2-3.9,39-6.6L411,780.9c15-8.5,31.4-14.8,48.7-18.8l193.1,193.1
		c9.8-3.3,19.4-6.8,28.8-10.7c1.4-0.6,2.9-1.2,4.3-1.8c17.4-7.3,34.3-15.6,50.5-24.8v-41.5V797.8z M500.8,757.6
		c99.6,0.4,180.3,81.1,180.8,180.8L500.8,757.6z"/>
	<rect x="214.9" y="462.4" class="st2" width="570.3" height="28.2"/>
	<path class="st2" d="M366.3,204.3c0-9.9-8-17.9-17.9-17.9h-1.5c-9.9,0-17.9,8-17.9,17.9v51.2h37.2V204.3z"/>
	<path class="st2" d="M420,233.1c0-9.9-8-17.9-17.9-17.9h-1.5c-9.9,0-17.9,8-17.9,17.9v22.4H420V233.1z"/>
	<path class="st1" d="M824.4,462.4v-56.7c0-82.6-67.6-150.2-150.2-150.2H420h-37.2h-16.4h-37.2h-3.2c-82.6,0-150.2,67.6-150.2,150.2
		v56.7h39.2h570.3H824.4z M601.3,273c46.9,0,84.9,38,84.9,84.9s-38,84.9-84.9,84.9c-46.9,0-84.9-38-84.9-84.9S554.4,273,601.3,273z
		 M476.4,393.7c13.5,0,24.5,11,24.5,24.5s-11,24.5-24.5,24.5c-13.5,0-24.5-11-24.5-24.5S462.8,393.7,476.4,393.7z M296.2,358h34.2
		v85h-34.2V358z M241.1,358h34.2v85h-34.2V358z"/>
	<polygon class="st2" points="627.5,573 627.5,543.9 372.5,543.9 372.5,573 396,573 604.2,573 	"/>
	<rect x="396" y="573" class="st3" width="208.2" height="26.5"/>
	<polygon class="st2" points="627.5,632 627.5,599.5 604.2,599.5 396,599.5 372.5,599.5 372.5,632 396,632 604.2,632 	"/>
	<rect x="396" y="632" class="st3" width="208.2" height="26.5"/>
	<polygon class="st2" points="627.5,690.9 627.5,690.7 627.5,658.4 604.2,658.4 396,658.4 372.5,658.4 372.5,690.7 372.5,690.9 	"/>
	<path class="st1" d="M773.1,543.9c28.3,0,51.2-22.9,51.2-51.2v-2.2h-39.2H214.9h-39.2v2.2c0,28.3,22.9,51.2,51.2,51.2h145.6h255.1
		H773.1z"/>
	<path class="st3" d="M601.3,442.7c46.9,0,84.9-38,84.9-84.9s-38-84.9-84.9-84.9c-46.9,0-84.9,38-84.9,84.9S554.4,442.7,601.3,442.7
		z M630.7,308.1c21.2,0,38.4,17.2,38.4,38.4s-17.2,38.4-38.4,38.4c-21.2,0-38.4-17.2-38.4-38.4S609.5,308.1,630.7,308.1z
		 M592.2,391.4c8.1,0,14.7,6.6,14.7,14.7c0,8.1-6.6,14.7-14.7,14.7c-8.1,0-14.7-6.6-14.7-14.7C577.5,398,584.1,391.4,592.2,391.4z"
		/>
	<path class="st4" d="M318.4,939.2v5.3c40.9,16.7,84.7,28,130.4,32.8L334.9,863.4C324.3,886.5,318.4,912.1,318.4,939.2z"/>
	<path class="st4" d="M411,780.9l188.7,188.7c18.1-3.8,35.7-8.6,53-14.4L459.7,762.1C442.4,766,426.1,772.4,411,780.9z"/>
	<path class="st4" d="M500.8,757.6l180.8,180.8C681.1,838.7,600.5,758.1,500.8,757.6z"/>
	<path class="st4" d="M351.6,834.5L497.1,980l0,0h2.9c20.6,0,40.8-1.3,60.7-3.8L384,799.5C371.8,809.7,360.9,821.4,351.6,834.5z"/>
	<circle class="st2" cx="476.4" cy="418.2" r="24.5"/>
	<circle class="st5" cx="630.7" cy="346.5" r="38.4"/>
	
		<ellipse transform="matrix(0.9848 -0.1735 0.1735 0.9848 -61.486 108.9099)" class="st5" cx="592.2" cy="406.1" rx="14.7" ry="14.7"/>
	<rect x="241.1" y="358" class="st4" width="34.2" height="85"/>
	<rect x="296.2" y="358" class="st4" width="34.2" height="85"/>
</g>
</svg>
